<?xml version="1.0" encoding="UTF-8"?>
<svg width="100px" height="120px" viewBox="0 0 100 120" version="1.1" xmlns="http://www.w3.org/2000/svg" xmlns:xlink="http://www.w3.org/1999/xlink">
    <g id="PDF-Icon" stroke="none" stroke-width="1" fill="none" fill-rule="evenodd">
        <path d="M65,0 L10,0 C4.5,0 0,4.5 0,10 L0,110 C0,115.5 4.5,120 10,120 L90,120 C95.5,120 100,115.5 100,110 L100,35 L65,0 Z" id="Shape" fill="#E2E2E2" fill-rule="nonzero"></path>
        <path d="M64,0 L64,28 C64,31.9 67.1,35 71,35 L100,35 L64,0 Z" id="Shape" fill="#B5B5B5" fill-rule="nonzero"></path>
        <path d="M40.28,66.24 C39.24,66.24 38.28,66.12 37.52,65.88 L37.52,77.64 L32.8,77.64 L32.8,51.48 C34.4,51.16 36.68,50.96 39.28,50.96 C42,50.96 43.84,51.4 45.28,52.28 C46.64,53.12 47.48,54.6 47.48,56.44 C47.48,58.28 46.8,59.76 45.64,60.76 C44.28,61.96 42.44,62.56 40.2,62.56 L40.2,62.56 L40.28,66.24 Z M40.52,54.92 C39.52,54.92 38.72,55 38.2,55.12 L38.2,61.56 C38.52,61.64 39.16,61.68 39.92,61.68 C42.68,61.68 44.24,60.36 44.24,58.12 C44.24,56.08 42.84,54.92 40.52,54.92 L40.52,54.92 Z" id="Shape" fill="#EB483E" fill-rule="nonzero"></path>
        <path d="M56.36,78 C53.16,78 50.8,76.04 50.8,72.64 L50.8,72.64 L55.16,72.16 C55.16,73.68 55.68,74.28 56.48,74.28 C57.28,74.28 57.64,73.8 57.64,72.96 C57.64,71.68 56.96,70.96 55.2,69.68 C52.48,67.84 50.68,66.04 50.68,63.56 C50.68,60.56 53.04,58.76 56.4,58.76 C59.92,58.76 61.96,60.8 62,64.08 L62,64.08 L57.68,64.56 C57.68,63.24 57.24,62.52 56.48,62.52 C55.8,62.52 55.36,62.96 55.36,63.8 C55.36,64.96 56.04,65.56 57.8,66.84 C60.68,68.84 62.36,70.48 62.36,73.04 C62.36,76 60.08,78 56.36,78 Z" id="Path" fill="#EB483E" fill-rule="nonzero"></path>
        <path d="M72.56,78 C68.76,78 66.2,74.72 66.2,68.32 C66.2,62.08 68.88,58.76 72.96,58.76 C76.76,58.76 79.32,62.04 79.32,68.44 C79.32,74.68 76.64,78 72.56,78 Z M72.76,62.48 C71.16,62.48 70.8,64.92 70.8,68.32 C70.8,71.72 71.16,74.16 72.76,74.16 C74.36,74.16 74.72,71.72 74.72,68.32 C74.72,64.92 74.36,62.48 72.76,62.48 Z" id="Shape" fill="#EB483E" fill-rule="nonzero"></path>
    </g>
</svg>